<?xml version="1.0" encoding="UTF-8"?>
<svg width="16px" height="14px" viewBox="0 0 16 14" version="1.1" xmlns="http://www.w3.org/2000/svg" xmlns:xlink="http://www.w3.org/1999/xlink">
    <!-- Generator: Sketch 46.2 (44496) - http://www.bohemiancoding.com/sketch -->
    <title>email-84@2x</title>
    <desc>Created with Sketch.</desc>
    <defs></defs>
    <g id="Stoney-Roads" stroke="none" stroke-width="1" fill="none" fill-rule="evenodd">
        <g transform="translate(-62.000000, -763.000000)" id="Navivation" fill-rule="nonzero" fill="#fff">
            <g>
                <g id="Contact" transform="translate(50.000000, 750.000000)">
                    <g id="email-84" transform="translate(12.000000, 13.000000)">
                        <path d="M15,0 L1,0 C0.448,0 0,0.447 0,1 L0,13 C0,13.553 0.448,14 1,14 L15,14 C15.552,14 16,13.553 16,13 L16,1 C16,0.447 15.552,0 15,0 Z M14,12 L2,12 L2,5.723 L7.504,8.868 C7.812,9.044 8.189,9.044 8.496,8.868 L14,5.723 L14,12 Z M14,3.42 L8,6.849 L2,3.42 L2,2 L14,2 L14,3.42 Z" id="Shape"></path>
                    </g>
                </g>
            </g>
        </g>
    </g>
</svg>
