<?xml version="1.0" standalone="no"?>
<!DOCTYPE svg PUBLIC "-//W3C//DTD SVG 1.1//EN" "http://www.w3.org/Graphics/SVG/1.1/DTD/svg11.dtd" >
<svg xmlns="http://www.w3.org/2000/svg" xmlns:xlink="http://www.w3.org/1999/xlink" version="1.1">
<metadata></metadata>
<defs>
<font id="averta_regularregular" horiz-adv-x="1245" >
<font-face units-per-em="2048" ascent="1581" descent="-467" />
<missing-glyph horiz-adv-x="563" />
<glyph horiz-adv-x="0" />
<glyph horiz-adv-x="682" />
<glyph unicode=" "  horiz-adv-x="563" />
<glyph unicode="&#x09;" horiz-adv-x="563" />
<glyph unicode="&#xa0;" horiz-adv-x="563" />
<glyph unicode="!" horiz-adv-x="503" d="M133 102q0 50 34 83.5t85 33.5q48 0 82.5 -34t34.5 -83q0 -47 -34.5 -80.5t-82.5 -33.5q-51 0 -85 33t-34 81zM160 1507h190l-31 -1079h-129z" />
<glyph unicode="&#x22;" horiz-adv-x="698" d="M80 961l67 493h181l-111 -493h-137zM371 961l65 493h182l-108 -493h-139z" />
<glyph unicode="#" horiz-adv-x="1296" d="M86 346v129h260l51 330h-268v127h289l61 411h127l-61 -411h317l64 411h127l-64 -411h250v-127h-270l-49 -330h274v-129h-295l-63 -418h-125l63 418h-319l-66 -418h-127l66 418h-242zM473 475h320l51 330h-320z" />
<glyph unicode="$" horiz-adv-x="1159" d="M115 199l106 127q84 -83 188.5 -126.5t206.5 -43.5q117 0 190 54.5t73 149.5q0 43 -15 77.5t-38 58.5t-65.5 46t-83 37t-106.5 35q-60 19 -95 31.5t-86.5 34t-81.5 40.5t-65.5 48.5t-54.5 62t-32 76t-13 94.5q0 153 103 253.5t286 109.5v258h138v-268q93 -15 186.5 -55.5 t163.5 -94.5l-105 -127q-77 57 -171.5 89t-172.5 32q-110 0 -176.5 -48.5t-66.5 -137.5q0 -37 15.5 -67.5t38 -52t65.5 -43t79 -35.5t97 -34q68 -22 105 -34.5t92 -35t85 -42t65.5 -50.5t53.5 -65t30.5 -80.5t12.5 -101.5q0 -158 -105.5 -259t-291.5 -116v-250h-138v252 q-235 25 -417 201z" />
<glyph unicode="%" horiz-adv-x="2045" d="M92 1067q0 168 114 283.5t294 115.5q173 0 291 -110.5t118 -288.5q0 -171 -114 -288t-295 -117q-172 0 -290 113t-118 292zM238 1065q0 -121 76 -196.5t188 -75.5q118 0 191 78.5t73 193.5q0 119 -76.5 193.5t-187.5 74.5q-118 0 -191 -76.5t-73 -191.5zM639 23l637 1456 l135 -60l-637 -1454zM1130 391q0 168 114.5 285t293.5 117q172 0 291 -112.5t119 -289.5q0 -170 -114 -286.5t-296 -116.5q-171 0 -289.5 112.5t-118.5 290.5zM1276 389q0 -119 75.5 -194.5t186.5 -75.5q119 0 192.5 77.5t73.5 192.5q0 120 -76.5 195t-189.5 75 q-116 0 -189 -77.5t-73 -192.5z" />
<glyph unicode="&#x26;" horiz-adv-x="1345" d="M104 416q0 134 76 248t201 182l-176 211q15 181 134 296t298 115q84 0 156 -24t123 -64.5t86.5 -87t58.5 -98.5l-143 -55q-80 175 -269 178q-120 0 -188.5 -65.5t-79.5 -168.5l592 -706q78 135 78 297l161 4q0 -112 -32 -226.5t-97 -207.5l205 -244h-201l-116 139 q-154 -151 -404 -151q-197 0 -330 119t-133 309zM279 424q0 -121 85 -199t220 -78q173 0 290 107v2l-391 469q-95 -45 -149.5 -127t-54.5 -174z" />
<glyph unicode="'" horiz-adv-x="407" d="M80 961l67 493h181l-111 -493h-137z" />
<glyph unicode="(" horiz-adv-x="581" d="M125 606q0 257 62.5 494t174.5 418l127 -62q-99 -178 -153.5 -397t-54.5 -453q0 -441 202 -852l-129 -57q-229 409 -229 909z" />
<glyph unicode=")" horiz-adv-x="581" d="M92 1456l127 62q112 -182 175 -418.5t63 -493.5q0 -499 -230 -909l-129 57q203 413 203 852q0 233 -55 452t-154 398z" />
<glyph unicode="*" horiz-adv-x="837" d="M109 1243l59 96l203 -127l-6 242h110l-8 -242l205 127l55 -96l-215 -115l215 -110l-55 -98l-203 127l6 -242h-110l6 242l-203 -127l-57 98l213 110z" />
<glyph unicode="+" horiz-adv-x="1191" d="M117 489v154h401v404h156v-404h401v-154h-401v-401h-156v401h-401z" />
<glyph unicode="," horiz-adv-x="440" d="M66 -266l65 491h182l-125 -491h-122z" />
<glyph unicode="-" horiz-adv-x="839" d="M117 551v162h606v-162h-606z" />
<glyph unicode="." horiz-adv-x="493" d="M129 102q0 50 34 83.5t85 33.5q48 0 82.5 -34t34.5 -83q0 -47 -34.5 -80.5t-82.5 -33.5q-51 0 -85 33t-34 81z" />
<glyph unicode="/" horiz-adv-x="847" d="M-57 -170l788 1747l133 -64l-786 -1744z" />
<glyph unicode="0" horiz-adv-x="1286" d="M115 702q0 209 61 370t182 254t285 93q115 0 211.5 -48t167 -137.5t110 -226t39.5 -305.5q0 -209 -61 -369.5t-181.5 -252.5t-285.5 -92q-235 0 -381.5 189t-146.5 525zM289 702q0 -261 97.5 -408t256.5 -147q167 0 260.5 150t93.5 405q0 265 -97 411.5t-257 146.5 q-166 0 -260 -151t-94 -407z" />
<glyph unicode="1" horiz-adv-x="768" d="M43 1116l395 291h144v-1407h-172v1198l-281 -211z" />
<glyph unicode="2" horiz-adv-x="1067" d="M80 119l481 491q106 110 160.5 196t54.5 181q0 118 -74 194t-190 76q-203 0 -303 -192l-127 88q62 123 172 194.5t268 71.5q113 0 209 -48t156.5 -144t60.5 -221q0 -122 -55 -233t-184 -241l-367 -370v-4h625v-158h-885z" />
<glyph unicode="3" horiz-adv-x="1101" d="M57 266l150 70q39 -89 120 -137.5t201 -48.5q124 0 207.5 70t83.5 183q0 107 -80 178.5t-229 71.5h-117v152h137q127 0 190.5 63t63.5 160q0 102 -75.5 165.5t-188.5 63.5q-183 0 -274 -137l-140 76q57 102 164.5 162.5t253.5 60.5q186 0 309 -99t123 -269 q0 -105 -53 -190t-149 -130v-2q112 -43 175.5 -135.5t63.5 -216.5q0 -172 -128.5 -280.5t-325.5 -108.5q-175 0 -300.5 76t-181.5 202z" />
<glyph unicode="4" horiz-adv-x="1163" d="M63 248v123l680 1036h146v-1004h205v-155h-205v-248h-172v248h-654zM270 399h451v695z" />
<glyph unicode="5" horiz-adv-x="1140" d="M82 221l129 98q48 -80 133.5 -126t192.5 -46q138 0 232.5 85.5t94.5 213.5q0 136 -95 215.5t-230 79.5q-159 0 -248 -77l-101 30l41 713h744v-160h-582l-22 -395q115 41 213 41q194 0 324 -121.5t130 -327.5q0 -201 -141 -329.5t-348 -128.5q-146 0 -269.5 62.5 t-197.5 172.5z" />
<glyph unicode="6" horiz-adv-x="1196" d="M113 530q0 148 38.5 284t106 242t157.5 189t195 134.5t217 70.5l52 -147q-99 -23 -187 -67t-164 -110t-133 -159t-86 -205h2q65 59 155 92t189 33q193 0 316 -120.5t123 -326.5q0 -194 -138.5 -323t-347.5 -129q-213 0 -354 151t-141 391zM281 520q0 -165 91 -267.5 t234 -102.5q138 0 227 85t89 207q0 129 -83.5 207t-222.5 78q-110 0 -197.5 -55t-137.5 -137v-15z" />
<glyph unicode="7" horiz-adv-x="1011" d="M55 1247v160h871v-121l-557 -1311l-172 35l538 1237h-680z" />
<glyph unicode="8" horiz-adv-x="1177" d="M94 387q0 139 73.5 238t192.5 137v2q-78 25 -137 107t-59 190q0 165 119 261.5t305 96.5q191 0 308.5 -98.5t117.5 -259.5q0 -107 -60.5 -189.5t-138.5 -107.5v-2q120 -38 194 -136.5t74 -238.5q0 -179 -141.5 -289t-353.5 -110q-216 0 -355 113t-139 286zM268 406 q0 -113 92.5 -188t227.5 -75q140 0 228.5 77.5t88.5 185.5q0 120 -87.5 195t-229.5 75q-144 0 -232 -74.5t-88 -195.5zM330 1049q0 -96 71.5 -154.5t186.5 -58.5q116 0 189 58.5t73 154.5q0 95 -74.5 156t-187.5 61q-114 0 -186 -63.5t-72 -153.5z" />
<glyph unicode="9" horiz-adv-x="1185" d="M96 958q0 197 139.5 329t348.5 132q211 0 352 -153.5t141 -399.5q-1 -185 -64 -348t-167 -277t-234 -189t-270 -101l-49 147q98 25 186.5 68.5t168.5 108.5t140.5 158t90.5 206l-5 2q-67 -59 -157.5 -92t-192.5 -33q-186 0 -307 120.5t-121 321.5zM270 958 q0 -126 80.5 -204t210.5 -78q106 0 200 52.5t148 141.5v11q0 170 -91 274.5t-232 104.5q-139 0 -227.5 -88.5t-88.5 -213.5z" />
<glyph unicode=":" horiz-adv-x="487" d="M121 102q0 50 34 83.5t85 33.5q48 0 82 -34t34 -83q0 -47 -34.5 -80.5t-81.5 -33.5q-51 0 -85 33t-34 81zM121 891q0 50 34 83.5t85 33.5q48 0 82 -34t34 -83q0 -47 -34.5 -81t-81.5 -34q-51 0 -85 33.5t-34 81.5z" />
<glyph unicode=";" horiz-adv-x="464" d="M68 -266l65 491h182l-125 -491h-122zM109 889q0 50 33.5 83.5t84.5 33.5q48 0 82.5 -34t34.5 -83q0 -47 -35 -81t-82 -34q-50 0 -84 33.5t-34 81.5z" />
<glyph unicode="&#x3c;" horiz-adv-x="1175" d="M115 506v123l921 424v-170l-692 -314l692 -315v-168z" />
<glyph unicode="=" horiz-adv-x="1193" d="M131 258v154h959v-154h-959zM131 721v153h959v-153h-959z" />
<glyph unicode="&#x3e;" horiz-adv-x="1175" d="M139 86v168l692 315l-692 314v170l922 -424v-123z" />
<glyph unicode="?" horiz-adv-x="923" d="M45 1331q68 91 170.5 141t220.5 50q170 0 287 -104.5t117 -278.5q0 -111 -48.5 -196.5t-134.5 -172.5q-11 -11 -50.5 -49t-52.5 -53t-36.5 -43.5t-32.5 -51.5t-10 -47l-4 -100h-147v109q0 55 26 109.5t57 91t82 89.5q13 12 19 19q71 75 109 140t38 146q0 104 -65.5 164 t-165.5 60q-72 0 -141.5 -37t-112.5 -103zM285 102q0 50 33.5 83.5t84.5 33.5q48 0 82.5 -34t34.5 -83q0 -47 -34.5 -80.5t-82.5 -33.5q-51 0 -84.5 33t-33.5 81z" />
<glyph unicode="@" horiz-adv-x="1847" d="M100 481q0 76 14.5 155.5t47.5 164.5t81 163t121 147.5t162 120.5t208.5 81t256.5 30q224 0 396.5 -94t266 -262t93.5 -383q0 -61 -12 -126.5t-42.5 -137t-76.5 -127t-121 -91.5t-168 -36q-92 0 -146.5 54t-52.5 143h-4q-46 -85 -124 -129.5t-181 -44.5 q-153 0 -251.5 107.5t-98.5 283.5q0 59 14.5 121t47.5 124t79.5 110.5t116 79t152.5 30.5q193 0 276 -177h2l19 164h167l-53 -553q-4 -46 -4 -57q0 -71 22.5 -96t65.5 -25q58 0 106 40t76 100t43 124t15 119q0 132 -45.5 246t-126 195.5t-197.5 128.5t-254 47 q-158 0 -288.5 -47t-215.5 -122.5t-144 -174t-84.5 -198.5t-25.5 -200q0 -177 83.5 -325t224.5 -232t307 -84q229 0 432 109l61 -97q-215 -137 -493 -137q-157 0 -295.5 58t-238 158.5t-157 244t-57.5 307.5zM641 514q0 -111 64 -182.5t163 -71.5q66 0 121 28t89 73t52.5 98 t18.5 106q0 106 -62.5 176t-160.5 70q-130 0 -207.5 -88t-77.5 -209z" />
<glyph unicode="A" horiz-adv-x="1396" d="M57 0l551 1454h178l555 -1454h-188l-129 354h-649l-129 -354h-189zM432 510h535l-267 727h-4z" />
<glyph unicode="B" horiz-adv-x="1308" d="M184 0v1454h475q222 0 345.5 -87t123.5 -267q0 -111 -58.5 -201.5t-170.5 -130.5v-4q133 -28 217 -123t84 -248q0 -179 -123 -286t-362 -107h-531zM362 164h304q160 0 254 62.5t94 183.5q0 123 -88 191.5t-252 68.5h-312v-506zM362 829h295q55 0 104.5 13t92 39.5 t67.5 73.5t25 110q0 225 -323 225h-261v-461z" />
<glyph unicode="C" horiz-adv-x="1490" d="M121 721q0 156 48.5 291.5t138.5 237t228.5 160t309.5 58.5q159 0 306 -68t261 -210l-133 -111q-84 105 -196.5 162t-237.5 57q-246 0 -392.5 -160t-146.5 -417q0 -127 41 -233t113 -177.5t171 -111t214 -39.5q260 0 434 217l133 -113q-220 -274 -567 -274 q-149 0 -279.5 48t-230 138.5t-157.5 231t-58 313.5z" />
<glyph unicode="D" horiz-adv-x="1495" d="M184 0v1454h437q227 0 398.5 -92.5t263 -257.5t91.5 -379q0 -160 -52 -294t-147.5 -229.5t-236 -148.5t-311.5 -53h-443zM362 162h252q260 0 419 157.5t159 405.5q0 251 -157.5 409t-411.5 158h-261v-1130z" />
<glyph unicode="E" horiz-adv-x="1224" d="M184 0v1454h891v-164h-710v-485h583v-164h-583v-477h753v-164h-934z" />
<glyph unicode="F" horiz-adv-x="1193" d="M184 0v1454h928v-164h-750v-510h637v-164h-637v-616h-178z" />
<glyph unicode="G" horiz-adv-x="1562" d="M121 725q0 214 88 382.5t253 264.5t380 96q155 0 299 -56t256 -173l-127 -109q-177 168 -430 168q-232 0 -382.5 -158t-150.5 -415q0 -163 66.5 -292.5t190.5 -203t284 -73.5q233 0 387 110v320h-422v164h600v-576q-102 -87 -250.5 -135.5t-314.5 -48.5q-156 0 -290 52 t-230.5 146t-151.5 232.5t-55 304.5z" />
<glyph unicode="H" horiz-adv-x="1486" d="M184 0v1454h178v-682h762v682h179v-1454h-179v608h-762v-608h-178z" />
<glyph unicode="I" horiz-adv-x="569" d="M195 0v1454h180v-1454h-180z" />
<glyph unicode="J" horiz-adv-x="1017" d="M66 174l100 131q56 -64 129 -104.5t145 -40.5q240 0 240 317v977h176v-981q0 -239 -99 -361t-311 -122q-101 0 -204.5 47.5t-175.5 136.5z" />
<glyph unicode="K" horiz-adv-x="1331" d="M184 0v1454h178v-799h5l661 799h227l-563 -661l580 -793h-223l-474 647h-6l-207 -246v-401h-178z" />
<glyph unicode="L" horiz-adv-x="1150" d="M184 0v1454h178v-1290h721v-164h-899z" />
<glyph unicode="M" horiz-adv-x="1800" d="M184 0v1454h181l534 -940h4l535 940h178v-1454h-178v1114h-4l-473 -821h-121l-473 821h-5v-1114h-178z" />
<glyph unicode="N" horiz-adv-x="1548" d="M184 0v1454h176l822 -1159h4v1159h178v-1454h-182l-815 1147h-5v-1147h-178z" />
<glyph unicode="O" horiz-adv-x="1697" d="M121 727q0 209 91 377.5t258.5 266t381.5 97.5q153 0 286.5 -54t230 -149.5t152.5 -235t56 -302.5t-56 -301.5t-152.5 -234t-230.5 -149.5t-286 -54q-214 0 -381.5 97t-258.5 265t-91 377zM305 727q0 -157 68 -286.5t194 -206t285 -76.5q149 0 272 72t195 202.5t72 294.5 q0 165 -72 296.5t-194.5 203t-272.5 71.5q-159 0 -285 -77t-194 -207t-68 -287z" />
<glyph unicode="P" horiz-adv-x="1265" d="M184 0v1454h510q124 0 218 -33.5t151 -95t85 -142t28 -179.5q0 -223 -138 -336t-374 -113h-302v-555h-178zM362 719h285q175 0 258.5 78.5t83.5 210.5q0 136 -82.5 209t-230.5 73h-314v-571z" />
<glyph unicode="Q" horiz-adv-x="1732" d="M121 727q0 209 91 377.5t258.5 266t381.5 97.5q153 0 286.5 -54t230 -149.5t152.5 -235t56 -302.5q0 -268 -147 -465l182 -164l-103 -129l-192 176q-196 -157 -465 -157q-214 0 -381.5 97t-258.5 265t-91 377zM305 727q0 -161 70.5 -291t196 -204t280.5 -74 q190 0 328 110l-166 152l100 123l176 -158q101 151 101 342q0 161 -69.5 291.5t-193 205t-276.5 74.5q-155 0 -280.5 -74.5t-196 -205t-70.5 -291.5z" />
<glyph unicode="R" horiz-adv-x="1325" d="M184 0v1454h516q123 0 216.5 -33.5t151 -95t86 -142t28.5 -179.5q0 -181 -91 -289.5t-255 -143.5v-2l385 -569h-215l-369 555h-275v-555h-178zM362 719h291q174 0 259 78.5t85 210.5q0 137 -84 209.5t-235 72.5h-316v-571z" />
<glyph unicode="S" horiz-adv-x="1196" d="M90 213l115 135q75 -93 183.5 -142.5t219.5 -49.5q135 0 216 60t81 163q0 33 -8 61t-19.5 49t-34.5 41t-44 34t-56.5 30t-64 27t-74.5 29l-24 9q-56 21 -92.5 36t-87 39t-83 46.5t-68 55t-56.5 67.5t-34.5 81t-13.5 99q0 162 129 272.5t316 112.5q248 0 461 -170 l-109 -139q-84 70 -176 107t-176 37q-107 0 -182.5 -56.5t-75.5 -154.5q0 -23 5 -43.5t11.5 -37t23.5 -33.5l28 -28t38.5 -26.5t41 -23.5t50.5 -23.5t52.5 -22t58.5 -23.5q182 -70 244 -103q139 -76 183 -188q24 -63 24 -143q0 -97 -40.5 -176.5t-109 -129t-155 -76.5 t-181.5 -27q-142 0 -276.5 56t-239.5 169z" />
<glyph unicode="T" horiz-adv-x="1181" d="M63 1290v164h1053v-164h-438v-1290h-178v1290h-437z" />
<glyph unicode="U" horiz-adv-x="1456" d="M164 592v862h178v-850q0 -202 104.5 -324t278.5 -122q173 0 280 119.5t107 326.5v850h178v-862q0 -280 -152.5 -442t-412.5 -162q-253 0 -407 160.5t-154 443.5z" />
<glyph unicode="V" horiz-adv-x="1380" d="M66 1454h192l434 -1198h4l434 1198h193l-549 -1454h-160z" />
<glyph unicode="W" horiz-adv-x="2097" d="M72 1454h190l359 -1161h4l327 1161h195l328 -1165h2l358 1165h190l-464 -1454h-172l-336 1192h-2l-342 -1192h-172z" />
<glyph unicode="X" horiz-adv-x="1366" d="M72 0l497 727l-491 727h205l399 -588h4l397 588h207l-489 -729l495 -725h-211l-399 586h-4l-399 -586h-211z" />
<glyph unicode="Y" horiz-adv-x="1236" d="M35 1454h205l376 -627h5l374 627h207l-495 -805v-649h-179v649z" />
<glyph unicode="Z" horiz-adv-x="1265" d="M121 0v141l776 1147v2h-735v164h968v-141l-782 -1149h789v-164h-1016z" />
<glyph unicode="[" horiz-adv-x="636" d="M139 -297v1790h400v-131h-252v-1528h252v-131h-400z" />
<glyph unicode="\" horiz-adv-x="860" d="M-16 1513l133 64l788 -1747l-135 -61z" />
<glyph unicode="]" horiz-adv-x="636" d="M98 -166h252v1528h-252v131h400v-1790h-400v131z" />
<glyph unicode="^" horiz-adv-x="958" d="M125 1024l287 430h133l289 -430h-152l-205 313l-205 -313h-147z" />
<glyph unicode="_" horiz-adv-x="1079" d="M-4 -55h1087v-119h-1087v119z" />
<glyph unicode="`" horiz-adv-x="1034" d="M268 1399l191 -2l239 -289h-176z" />
<glyph unicode="a" d="M98 492q0 222 138.5 370t349.5 148q103 0 192 -42t152 -120h2v149h166v-997h-160v158h-2q-61 -81 -151 -125.5t-197 -44.5q-211 0 -350.5 139.5t-139.5 364.5zM266 492q0 -153 93 -253t243 -100q139 0 237.5 99t98.5 254t-95 259.5t-239 104.5t-241 -100.5t-97 -263.5z " />
<glyph unicode="b" horiz-adv-x="1255" d="M160 0v1507h166v-659h2q63 78 152 120t192 42q210 0 348.5 -148t138.5 -370q0 -225 -140 -364.5t-349 -139.5q-107 0 -197 44.5t-151 125.5h-5v-158h-157zM319 492q0 -154 98.5 -253.5t235.5 -99.5q150 0 243 100t93 253q0 163 -96.5 263.5t-241.5 100.5 q-142 0 -237 -105t-95 -259z" />
<glyph unicode="c" horiz-adv-x="1069" d="M96 498q0 226 140 369t360 143q115 0 222 -46.5t179 -132.5l-114 -100q-47 58 -119.5 91.5t-159.5 33.5q-151 0 -245.5 -100t-94.5 -258q0 -160 94.5 -259.5t245.5 -99.5q85 0 160 33t123 86l114 -102q-66 -74 -174.5 -121t-236.5 -47q-216 0 -355 142t-139 368z" />
<glyph unicode="d" horiz-adv-x="1251" d="M96 492q0 222 138.5 370t349.5 148q101 0 190 -42t150 -120h2v659h166v-1507h-158v158h-4q-61 -81 -149.5 -125.5t-194.5 -44.5q-211 0 -350.5 139.5t-139.5 364.5zM264 492q0 -153 93 -253t243 -100q136 0 234 99.5t98 253.5t-94.5 259t-235.5 105q-144 0 -241 -100.5 t-97 -263.5z" />
<glyph unicode="e" horiz-adv-x="1130" d="M96 498q0 224 136.5 368t340.5 144q207 0 335 -139.5t128 -356.5q0 -16 -2 -42l-2 -26h-768q17 -140 108 -223.5t226 -83.5q175 0 281 135l116 -100q-144 -186 -403 -186q-214 0 -355 142.5t-141 367.5zM270 584h602q-21 125 -96.5 198.5t-193.5 73.5t-203.5 -73 t-108.5 -199z" />
<glyph unicode="f" horiz-adv-x="686" d="M78 854v143h123v201q0 159 72 241.5t206 82.5q127 0 234 -64l-37 -143q-97 51 -174 51q-137 0 -137 -182v-187h282v-143h-282v-854h-164v854h-123z" />
<glyph unicode="g" horiz-adv-x="1226" d="M92 512q0 212 136.5 355t338.5 143q100 0 190 -39.5t154 -112.5h4v139h164v-921q0 -111 -28 -199.5t-85.5 -155.5t-152.5 -103t-223 -36q-226 0 -406 109l39 153q94 -53 176.5 -78.5t182.5 -25.5q162 0 249 82.5t87 210.5v139h-5q-125 -154 -338 -154q-204 0 -343.5 138 t-139.5 356zM262 518q0 -155 94 -249.5t232 -94.5q149 0 241.5 97.5t92.5 248.5q0 148 -95.5 241t-238.5 93q-142 0 -234 -95.5t-92 -240.5z" />
<glyph unicode="h" horiz-adv-x="1196" d="M158 0v1507h166v-673h4q61 86 155.5 131t210.5 45q169 0 266 -102.5t97 -309.5v-598h-166v551q0 305 -244 305q-150 0 -236.5 -94t-86.5 -260v-502h-166z" />
<glyph unicode="i" horiz-adv-x="512" d="M137 1298q0 48 34.5 82.5t84.5 34.5q49 0 84 -34.5t35 -82.5q0 -49 -34.5 -82.5t-84.5 -33.5q-51 0 -85 33t-34 83zM172 0v997h166v-997h-166z" />
<glyph unicode="j" horiz-adv-x="466" d="M-104 -385l26 147q54 -28 105 -28q59 0 94 40t35 122v1101h166v-1101q0 -146 -68 -230t-186 -84q-95 0 -172 33zM121 1298q0 48 34.5 82.5t84.5 34.5q49 0 83.5 -34.5t34.5 -82.5q0 -49 -34 -82.5t-84 -33.5q-51 0 -85 33t-34 83z" />
<glyph unicode="k" horiz-adv-x="1067" d="M160 0v1507h164v-1054h4l489 544h203l-373 -413l375 -584h-191l-294 457h-5l-208 -232v-225h-164z" />
<glyph unicode="l" horiz-adv-x="512" d="M172 0v1507h166v-1507h-166z" />
<glyph unicode="m" horiz-adv-x="1830" d="M160 0v997h164v-172h2q61 88 149.5 136.5t186.5 48.5q238 0 317 -197h2q60 95 154 146t208 51q351 0 351 -426v-584h-166v539q0 167 -57 242t-177 75q-119 0 -198.5 -98.5t-79.5 -261.5v-496h-166v541q0 163 -59.5 239t-178.5 76q-124 0 -206 -98t-82 -262v-496h-164z " />
<glyph unicode="n" horiz-adv-x="1187" d="M158 0v997h166v-174h2q63 89 157.5 138t204.5 49q167 0 263 -105t96 -313v-592h-166v545q0 166 -64 238.5t-180 72.5q-143 0 -228 -95.5t-85 -262.5v-498h-166z" />
<glyph unicode="o" horiz-adv-x="1222" d="M96 498q0 219 143.5 365.5t372.5 146.5q222 0 367 -143.5t145 -368.5t-145 -367.5t-367 -142.5q-152 0 -270.5 67.5t-182 183.5t-63.5 259zM264 498q0 -152 97.5 -255.5t250.5 -103.5q146 0 245 101t99 258q0 158 -98.5 258t-245.5 100q-154 0 -251 -103t-97 -255z" />
<glyph unicode="p" horiz-adv-x="1251" d="M160 -406v1403h166v-147h2q63 77 151.5 118.5t188.5 41.5q211 0 349 -148t138 -370q0 -225 -139 -364.5t-348 -139.5q-104 0 -191.5 41.5t-148.5 117.5h-4v-553h-164zM319 492q0 -154 98 -253.5t234 -99.5q150 0 243 100t93 253q0 163 -96.5 263.5t-241.5 100.5 q-141 0 -235.5 -105t-94.5 -259z" />
<glyph unicode="q" d="M96 492q0 222 138.5 370t349.5 148q102 0 190.5 -41.5t149.5 -118.5h4v147h166v-1403h-166v553h-4q-61 -76 -148 -117.5t-190 -41.5q-211 0 -350.5 139.5t-139.5 364.5zM264 492q0 -153 93 -253t243 -100q136 0 235 99.5t99 253.5t-95.5 259t-236.5 105 q-144 0 -241 -100.5t-97 -263.5z" />
<glyph unicode="r" horiz-adv-x="731" d="M158 0v997h166v-176h2q56 90 140.5 139.5t184.5 49.5q31 0 41 -2v-185q-46 4 -65 4q-139 0 -221 -96.5t-82 -249.5v-481h-166z" />
<glyph unicode="s" horiz-adv-x="903" d="M72 131l86 125q64 -59 134.5 -89t170.5 -30q86 0 137 38.5t51 94.5q0 31 -15 53.5t-47.5 41t-69.5 32.5t-95 34q-7 2 -10 3q-70 25 -116.5 47.5t-92 58t-68 85.5t-22.5 116q0 116 93.5 192.5t235.5 76.5q190 0 342 -123l-86 -131q-118 102 -264 102q-60 0 -106.5 -32.5 t-46.5 -84.5q0 -28 13 -50.5t42.5 -41.5t57 -32t75.5 -31q160 -62 190 -77q104 -50 137 -121q21 -46 21 -110v-6q0 -124 -92 -204t-264 -80q-232 0 -391 143z" />
<glyph unicode="t" horiz-adv-x="745" d="M53 854v143h127v340l166 19v-359h332v-143h-332v-532q0 -93 27.5 -136t95.5 -43q77 0 168 52l45 -146q-108 -61 -242 -61q-260 0 -260 309v557h-127z" />
<glyph unicode="u" horiz-adv-x="1155" d="M137 403v594h166v-546q0 -166 60.5 -239t183.5 -73q124 0 209.5 101.5t85.5 273.5v483h166v-997h-166v166h-2q-60 -86 -145.5 -132t-182.5 -46q-177 0 -276 103.5t-99 311.5z" />
<glyph unicode="v" horiz-adv-x="1071" d="M49 997h178l308 -786h6l301 786h180l-406 -997h-159z" />
<glyph unicode="w" horiz-adv-x="1572" d="M59 997h168l254 -745h4l228 745h143l231 -745h5l254 745h167l-346 -997h-155l-226 727h-2l-227 -727h-151z" />
<glyph unicode="x" horiz-adv-x="1044" d="M63 0l363 504l-363 493h195l262 -364h4l260 364h195l-361 -493l365 -504h-188l-271 362h-4l-268 -362h-189z" />
<glyph unicode="y" horiz-adv-x="1081" d="M47 997h178l324 -759h4l301 759h176l-563 -1403h-176l178 447z" />
<glyph unicode="z" horiz-adv-x="972" d="M80 0v123l577 727v4h-546v143h776v-118l-584 -732v-4h582v-143h-805z" />
<glyph unicode="{" horiz-adv-x="692" d="M98 524v133q46 3 78 14t48 24t24.5 36t10 38.5t1.5 43.5v453q0 97 60 162t161 65h109v-119h-53q-62 0 -96.5 -40t-34.5 -97v-440q0 -90 -26 -137.5t-93 -65.5v-4q70 -19 94.5 -61t24.5 -144v-401q0 -84 30 -122t101 -38h53v-119h-109q-95 0 -158 62t-63 165v437 q0 22 -0.5 34t-3.5 30t-9 28.5t-18 23t-29 19.5t-42.5 12.5t-59.5 7.5z" />
<glyph unicode="|" horiz-adv-x="602" d="M227 -236v1745h148v-1745h-148z" />
<glyph unicode="}" horiz-adv-x="692" d="M102 -176h54q71 0 101 38t30 122v401q0 102 24.5 144t94.5 61v4q-67 18 -93 65.5t-26 137.5v440q0 57 -34.5 97t-96.5 40h-54v119h109q101 0 161 -65t60 -162v-453q0 -28 1.5 -43.5t10 -38.5t24.5 -36t48 -24t78 -14v-133q-34 -2 -59.5 -7.5t-42.5 -12.5t-29 -19.5 t-18 -23t-9 -28.5t-3.5 -30t-0.5 -34v-437q0 -103 -63 -165t-158 -62h-109v119z" />
<glyph unicode="~" horiz-adv-x="1150" d="M125 485q37 101 102.5 159t155.5 58q93 0 209 -57q100 -53 166 -53q45 0 84.5 28t62.5 78l121 -43q-34 -102 -101.5 -162.5t-148.5 -60.5q-41 0 -86 12.5t-66 22t-69 33.5q-95 45 -154 45q-99 0 -155 -109z" />
<glyph unicode="&#xa1;" horiz-adv-x="503" d="M133 893q0 48 34 81.5t85 33.5q47 0 82 -34t35 -81q0 -49 -34.5 -83t-82.5 -34q-51 0 -85 33.5t-34 83.5zM160 -512l30 1079h129l31 -1079h-190z" />
<glyph unicode="&#xa2;" horiz-adv-x="1116" d="M104 608q0 209 125.5 348.5t329.5 159.5v217h133v-217q99 -11 188 -55t152 -117l-112 -100q-51 58 -126.5 91.5t-164.5 33.5q-157 0 -256 -100.5t-99 -258.5q0 -159 98.5 -258.5t256.5 -99.5q90 0 167 32.5t128 86.5l112 -105q-58 -62 -147.5 -106.5t-196.5 -57.5v-211 h-133v209q-204 19 -329.5 158t-125.5 350z" />
<glyph unicode="&#xa3;" horiz-adv-x="1153" d="M96 0v164h160v528h-127v137h127v117q0 122 33 215t91 147t129 80.5t155 26.5q118 0 216.5 -52.5t163.5 -148.5l-94 -120q-49 74 -118 113.5t-148 39.5q-116 0 -183 -75.5t-67 -243.5v-99h344v-137h-342v-528h662v-164h-1002z" />
<glyph unicode="&#xa4;" horiz-adv-x="1034" d="M49 412l162 159q-72 93 -72 220q0 123 72 221l-162 159l82 80l160 -159q97 75 221 75q128 0 223 -73l160 159l80 -79l-160 -160q74 -96 74 -223q0 -126 -74 -222l160 -161l-80 -80l-160 161q-96 -71 -223 -71q-125 0 -221 71l-160 -159zM260 793q2 -103 76.5 -177.5 t177.5 -74.5t177.5 74.5t76.5 177.5q-1 104 -76.5 177.5t-179.5 73.5q-102 0 -176.5 -73.5t-75.5 -177.5z" />
<glyph unicode="&#xa5;" horiz-adv-x="1148" d="M27 1405h206l340 -629h5l340 629l206 -2l-323 -567h203v-111h-267l-71 -125v-4h335v-113h-335v-483h-181v483h-348v113h348v4l-71 125h-277v111h213z" />
<glyph unicode="&#xa6;" horiz-adv-x="602" d="M227 -233v722h148v-722h-148zM227 791v718h148v-718h-148z" />
<glyph unicode="&#xa7;" horiz-adv-x="1105" d="M117 590q0 93 45.5 161t130.5 107q-127 89 -127 238q0 141 102 232t271 91q100 0 208 -40t187 -105l-100 -121q-142 107 -287 107q-86 0 -143.5 -43.5t-57.5 -116.5q0 -39 16 -69t54 -54.5t71.5 -39.5t98.5 -40q178 -70 223 -94q118 -60 155 -143q23 -51 23 -119 q0 -83 -44 -151t-124 -109q135 -85 135 -244q0 -151 -108 -242.5t-291 -91.5q-260 0 -434 186l102 123q66 -75 154 -113t176 -38q93 0 156 46t63 126q0 33 -12.5 60t-30 45t-55 37.5t-67 31.5t-87.5 33q-47 18 -71.5 27.5t-66 27t-64 29.5t-55 31t-50.5 35.5t-39 39.5 t-31.5 46t-18 52.5t-7.5 61.5zM287 618q0 -76 64 -122t218 -103l103 -39q68 17 106.5 61t38.5 105q0 22 -3.5 40t-15 34.5t-20 28t-32.5 26t-37.5 22.5t-49.5 23t-54 22t-66 25l-95 37q-72 -12 -114.5 -55.5t-42.5 -104.5z" />
<glyph unicode="&#xa8;" horiz-adv-x="1040" d="M217 1266q0 48 34.5 82t84.5 34q49 0 84 -34.5t35 -81.5q0 -49 -34.5 -83t-84.5 -34q-51 0 -85 33.5t-34 83.5zM590 1266q0 46 34 80t83 34t82.5 -34t33.5 -80q0 -48 -33.5 -81.5t-82.5 -33.5t-83 33.5t-34 81.5z" />
<glyph unicode="&#xa9;" horiz-adv-x="1431" d="M96 651q0 167 82 310.5t226 229t315 85.5q170 0 312.5 -85.5t223 -229t80.5 -310.5q0 -124 -48 -239t-130 -199.5t-198 -135t-244 -50.5q-170 0 -312.5 84.5t-224.5 228t-82 311.5zM215 649q0 -136 65.5 -252t180.5 -184t254 -68t254.5 68.5t181.5 185t66 252.5 q0 138 -65.5 254t-180 184t-252.5 68q-140 0 -256.5 -69t-182 -185.5t-65.5 -253.5zM399 647q0 144 88.5 240t245.5 96q158 0 260 -127l-80 -68q-74 91 -180 91q-101 0 -161 -63.5t-60 -168.5q0 -104 61.5 -165.5t159.5 -61.5q114 0 180 86l80 -68q-95 -125 -260 -125 q-142 0 -238 88t-96 246z" />
<glyph unicode="&#xaa;" horiz-adv-x="798" d="M59 1104q0 135 81.5 223t209.5 88q65 0 124.5 -28t100.5 -80h3v100h120v-598h-120v88h-3q-79 -98 -219 -98q-131 0 -214 85t-83 220zM184 1104q0 -82 56 -135.5t143 -53.5q81 0 135.5 52t54.5 137q0 84 -52.5 139t-135.5 55q-86 0 -143.5 -54t-57.5 -140z" />
<glyph unicode="&#xab;" horiz-adv-x="948" d="M86 502l256 454h166l-256 -454l254 -449h-166zM446 502l259 454h163l-256 -454l254 -449h-166z" />
<glyph unicode="&#xac;" horiz-adv-x="1150" d="M119 659v152h911v-475h-149v323h-762z" />
<glyph unicode="&#xad;" horiz-adv-x="839" d="M117 551v162h606v-162h-606z" />
<glyph unicode="&#xae;" horiz-adv-x="1437" d="M96 651q0 168 82.5 312.5t227 230.5t315.5 86q128 0 243.5 -50.5t197.5 -135.5t130.5 -201t48.5 -242q0 -125 -48.5 -240t-131.5 -200t-198.5 -135.5t-243.5 -50.5t-244 50t-198.5 134.5t-131.5 200t-49 241.5zM215 649q0 -137 66 -253.5t182 -185.5t256 -69 q138 0 254 69.5t182 186.5t66 254q0 138 -65.5 254.5t-180.5 185t-254 68.5q-213 0 -359.5 -149.5t-146.5 -360.5zM504 324v663h239q111 0 166.5 -57.5t55.5 -153.5q0 -155 -148 -196l178 -256h-125l-165 245h-97v-245h-104zM608 666h111q69 0 102 31t33 81q0 52 -34 82.5 t-93 30.5h-119v-225z" />
<glyph unicode="&#xaf;" horiz-adv-x="935" d="M174 1188v141h588v-141h-588z" />
<glyph unicode="&#xb0;" horiz-adv-x="806" d="M119 1188q0 114 85 197t199 83t198.5 -83t84.5 -199q0 -114 -83.5 -194.5t-199.5 -80.5q-117 0 -200.5 81t-83.5 196zM238 1188q0 -66 48 -114t115 -48q69 0 117.5 48t48.5 114q0 67 -49.5 115.5t-116.5 48.5q-65 0 -114 -48.5t-49 -115.5z" />
<glyph unicode="&#xb1;" horiz-adv-x="1234" d="M121 729v154h401v403h156v-403h401v-154h-401v-401h-156v401h-401zM154 -6v153h958v-153h-958z" />
<glyph unicode="&#xb2;" horiz-adv-x="698" d="M53 1587q40 70 117 115t172 45q115 0 198 -70t83 -184q0 -77 -33.5 -140t-120.5 -143l-201 -182v-4h365v-131h-578v98l293 281q67 62 98 108t31 97q0 59 -40 98t-103 39q-49 0 -97 -26.5t-77 -78.5z" />
<glyph unicode="&#xb3;" horiz-adv-x="708" d="M41 1063l129 51q44 -104 176 -104q73 0 115.5 35.5t42.5 97.5q0 56 -46 91.5t-126 35.5h-70v110h84q66 0 106 33t40 82q0 57 -40.5 90t-109.5 33q-104 0 -149 -82l-119 66q34 65 104.5 105t165.5 40q123 0 203 -60t80 -165q0 -132 -115 -191v-4q139 -57 139 -207 q0 -107 -81.5 -173t-213.5 -66q-115 0 -198.5 50.5t-116.5 131.5z" />
<glyph unicode="&#xb4;" horiz-adv-x="1034" d="M338 1108l240 289l188 2l-254 -291h-174z" />
<glyph unicode="&#xb5;" horiz-adv-x="1175" d="M152 -406v1403h165v-528q0 -167 67 -248.5t191 -81.5q123 0 204 99t81 264v495h166v-997h-152l-10 164h-4q-57 -84 -139.5 -130t-177.5 -46q-157 0 -234 106l-2 -2q10 -120 10 -217v-281h-165z" />
<glyph unicode="&#xb6;" horiz-adv-x="970" d="M96 1024q0 145 95.5 228t259.5 83h327v-1642h-110v1528h-125v-1221h-113v717q-151 8 -242.5 88t-91.5 219z" />
<glyph unicode="&#xb7;" horiz-adv-x="487" d="M127 494q0 50 34 83t85 33q48 0 82 -33.5t34 -82.5q0 -47 -34.5 -81t-81.5 -34q-51 0 -85 33.5t-34 81.5z" />
<glyph unicode="&#xb8;" horiz-adv-x="790" d="M231 -283q47 -14 99 -14q48 0 81 19.5t33 56.5q0 36 -44 61t-126 25v61l41 86h105l-35 -75l2 -5q81 -5 129.5 -47t48.5 -114q0 -69 -55 -112.5t-164 -43.5q-53 0 -115 12v90z" />
<glyph unicode="&#xb9;" horiz-adv-x="540" d="M39 1556l262 181h113v-844h-144v663l-161 -110z" />
<glyph unicode="&#xba;" horiz-adv-x="774" d="M59 1108q0 132 89 219.5t229 87.5q136 0 226.5 -86t90.5 -221q0 -137 -90 -223t-227 -86q-140 0 -229 88t-89 221zM190 1108q0 -83 52.5 -139t134.5 -56q79 0 132.5 55t53.5 140q0 84 -53 138t-133 54q-82 0 -134.5 -55.5t-52.5 -136.5z" />
<glyph unicode="&#xbb;" horiz-adv-x="948" d="M80 956h164l258 -454l-254 -449h-166l254 449zM440 956h166l256 -454l-254 -449h-166l254 449z" />
<glyph unicode="&#xbc;" horiz-adv-x="1593" d="M39 1276l262 180h113v-844h-144v664l-161 -111zM391 23l635 1456l135 -60l-635 -1454zM893 139v92l416 613h110v-580h125v-125h-125v-139h-141v139h-385zM1055 256h233v348z" />
<glyph unicode="&#xbd;" horiz-adv-x="1658" d="M39 1276l262 180h113v-844h-144v664l-161 -111zM391 23l635 1456l135 -60l-635 -1454zM1014 694q40 70 117 115t172 45q115 0 197.5 -70t82.5 -184q0 -77 -33 -140t-120 -143l-201 -182v-4h364v-131h-577v98l293 281q67 62 98 108t31 97q0 59 -40.5 98t-103.5 39 q-49 0 -97 -26.5t-77 -78.5z" />
<glyph unicode="&#xbe;" horiz-adv-x="1724" d="M41 782l129 52q45 -105 176 -105q73 0 115.5 35.5t42.5 97.5q0 56 -46 91.5t-126 35.5h-70v111h84q66 0 106 32.5t40 81.5q0 57 -40.5 90t-109.5 33q-104 0 -149 -82l-119 66q34 65 104.5 105t165.5 40q123 0 203 -60t80 -165q0 -131 -115 -190v-4q139 -57 139 -207 q0 -107 -81.5 -173.5t-213.5 -66.5q-115 0 -198.5 50.5t-116.5 131.5zM520 23l635 1456l135 -60l-635 -1454zM1024 139v92l416 613h110v-580h125v-125h-125v-139h-141v139h-385zM1186 256h233v348z" />
<glyph unicode="&#xbf;" horiz-adv-x="878" d="M84 -143q0 111 48.5 196t133.5 172q13 13 51 49.5t52 52t37 43.5t32.5 51.5t10.5 47.5l4 100h147v-108q0 -55 -26 -109.5t-57 -91t-82 -89.5q-13 -12 -19 -19q-71 -75 -109.5 -140.5t-38.5 -146.5q0 -104 66 -163.5t166 -59.5q73 0 142 36.5t112 102.5l125 -117 q-67 -91 -170 -140.5t-222 -49.5q-111 0 -201.5 45t-146 133.5t-55.5 204.5zM403 893q0 47 35 81t82 34q51 0 85 -33.5t34 -81.5q0 -50 -34 -83.5t-85 -33.5q-48 0 -82.5 34t-34.5 83z" />
<glyph unicode="&#xc0;" horiz-adv-x="1396" d="M57 0l551 1454h178l555 -1454h-188l-129 354h-649l-129 -354h-189zM350 1911l191 -2l239 -289h-176zM432 510h535l-267 727h-4z" />
<glyph unicode="&#xc1;" horiz-adv-x="1396" d="M57 0l551 1454h178l555 -1454h-188l-129 354h-649l-129 -354h-189zM432 510h535l-267 727h-4zM631 1620l239 289l189 2l-254 -291h-174z" />
<glyph unicode="&#xc2;" horiz-adv-x="1396" d="M57 0l551 1454h178l555 -1454h-188l-129 354h-649l-129 -354h-189zM379 1620l237 293h154l244 -293h-168l-148 182h-4l-147 -182h-168zM432 510h535l-267 727h-4z" />
<glyph unicode="&#xc3;" horiz-adv-x="1396" d="M57 0l551 1454h178l555 -1454h-188l-129 354h-649l-129 -354h-189zM332 1688q29 95 82 148.5t129 53.5q34 0 67.5 -10t50.5 -19.5t50 -29.5q4 -3 24 -17t27.5 -18t23 -12.5t28.5 -11.5t26 -3q37 0 68.5 29t49.5 84l107 -35q-27 -102 -82 -158.5t-123 -56.5q-33 0 -69 13 t-56 25t-55 36q-77 47 -119 47q-79 0 -123 -113zM432 510h535l-267 727h-4z" />
<glyph unicode="&#xc4;" horiz-adv-x="1396" d="M57 0l551 1454h178l555 -1454h-188l-129 354h-649l-129 -354h-189zM393 1780q0 48 34.5 82t84.5 34q49 0 84 -34.5t35 -81.5q0 -49 -34.5 -83t-84.5 -34q-51 0 -85 33.5t-34 83.5zM432 510h535l-267 727h-4zM766 1780q0 46 34 80t83 34t82.5 -34t33.5 -80 q0 -48 -33.5 -81.5t-82.5 -33.5t-83 33.5t-34 81.5z" />
<glyph unicode="&#xc5;" horiz-adv-x="1396" d="M57 0l551 1454h178l555 -1454h-188l-129 354h-649l-129 -354h-189zM432 510h535l-267 727h-4zM500 1776q0 81 56 137.5t140 56.5t142.5 -55.5t58.5 -138.5q0 -79 -58 -137t-143 -58q-80 0 -138 57t-58 138zM610 1778q0 -37 25.5 -61.5t62.5 -24.5q35 0 61.5 25.5 t26.5 60.5t-26.5 61.5t-61.5 26.5q-36 0 -62 -26t-26 -62z" />
<glyph unicode="&#xc6;" horiz-adv-x="1929" d="M16 0l783 1454h985v-164h-719v-485h598v-164h-598v-477h760v-164h-934v352h-496l-188 -352h-191zM481 510h410v756h-4z" />
<glyph unicode="&#xc7;" horiz-adv-x="1490" d="M121 721q0 156 48.5 291.5t138.5 237t228.5 160t309.5 58.5q159 0 306 -68t261 -210l-133 -111q-84 105 -196.5 162t-237.5 57q-246 0 -392.5 -160t-146.5 -417q0 -127 41 -233t113 -177.5t171 -111t214 -39.5q260 0 434 217l133 -113q-221 -271 -561 -274l-25 -53l2 -5 q81 -5 130 -47t49 -114q0 -69 -55.5 -112.5t-164.5 -43.5q-52 0 -114 12v90q47 -14 98 -14q48 0 81.5 19.5t33.5 56.5q0 36 -44 61t-126 25v61l28 60v10q-132 15 -244.5 69.5t-197.5 144t-133.5 221t-48.5 290.5z" />
<glyph unicode="&#xc8;" horiz-adv-x="1224" d="M184 0v1454h891v-164h-710v-485h583v-164h-583v-477h753v-164h-934zM412 1913l190 -2l240 -289h-176z" />
<glyph unicode="&#xc9;" horiz-adv-x="1224" d="M184 0v1454h891v-164h-710v-485h583v-164h-583v-477h753v-164h-934zM459 1622l239 289l189 2l-254 -291h-174z" />
<glyph unicode="&#xca;" horiz-adv-x="1224" d="M184 0v1454h891v-164h-710v-485h583v-164h-583v-477h753v-164h-934zM319 1620l238 293h154l243 -293h-168l-147 182h-4l-148 -182h-168z" />
<glyph unicode="&#xcb;" horiz-adv-x="1224" d="M184 0v1454h891v-164h-710v-485h583v-164h-583v-477h753v-164h-934zM334 1780q0 48 34.5 82t84.5 34q49 0 83.5 -34t34.5 -82q0 -49 -34 -83t-84 -34q-51 0 -85 33.5t-34 83.5zM707 1780q0 46 33.5 80t82.5 34t83 -34t34 -80q0 -48 -34 -81.5t-83 -33.5t-82.5 33.5 t-33.5 81.5z" />
<glyph unicode="&#xcc;" horiz-adv-x="569" d="M-66 1911l191 -2l240 -289h-177zM195 0v1454h180v-1454h-180z" />
<glyph unicode="&#xcd;" horiz-adv-x="569" d="M195 0v1454h180v-1454h-180zM217 1620l240 289l188 2l-254 -291h-174z" />
<glyph unicode="&#xce;" horiz-adv-x="569" d="M-37 1620l238 293h153l244 -293h-168l-147 182h-4l-148 -182h-168zM195 0v1454h180v-1454h-180z" />
<glyph unicode="&#xcf;" horiz-adv-x="569" d="M-23 1780q0 48 34.5 82t84.5 34q49 0 84 -34.5t35 -81.5q0 -49 -34.5 -83t-84.5 -34q-51 0 -85 33.5t-34 83.5zM195 0v1454h180v-1454h-180zM350 1780q0 46 34 80t83 34t83 -34t34 -80q0 -48 -34 -81.5t-83 -33.5t-83 33.5t-34 81.5z" />
<glyph unicode="&#xd0;" horiz-adv-x="1495" d="M8 801v155h176v498h437q227 0 398.5 -92.5t263 -257.5t91.5 -379q0 -160 -52 -294t-147.5 -229.5t-236 -148.5t-311.5 -53h-443v801h-176zM362 162h252q260 0 419 157.5t159 405.5q0 251 -157.5 409t-411.5 158h-261v-336h252v-155h-252v-639z" />
<glyph unicode="&#xd1;" horiz-adv-x="1548" d="M184 0v1454h176l822 -1159h4v1159h178v-1454h-182l-815 1147h-5v-1147h-178zM406 1688q61 202 210 202q34 0 67.5 -10t50.5 -19.5t50 -29.5q4 -3 24 -17t27.5 -18t23 -12.5t28.5 -11.5t26 -3q37 0 69 29t50 84l107 -35q-27 -102 -82 -158.5t-123 -56.5q-33 0 -69 13 t-56 25t-55 36q-77 47 -119 47q-79 0 -123 -113z" />
<glyph unicode="&#xd2;" horiz-adv-x="1697" d="M121 727q0 209 91 377.5t258.5 266t381.5 97.5q153 0 286.5 -54t230 -149.5t152.5 -235t56 -302.5t-56 -301.5t-152.5 -234t-230.5 -149.5t-286 -54q-214 0 -381.5 97t-258.5 265t-91 377zM305 727q0 -157 68 -286.5t194 -206t285 -76.5q149 0 272 72t195 202.5t72 294.5 q0 165 -72 296.5t-194.5 203t-272.5 71.5q-159 0 -285 -77t-194 -207t-68 -287zM518 1911l191 -2l239 -289h-176z" />
<glyph unicode="&#xd3;" horiz-adv-x="1697" d="M121 727q0 209 91 377.5t258.5 266t381.5 97.5q153 0 286.5 -54t230 -149.5t152.5 -235t56 -302.5t-56 -301.5t-152.5 -234t-230.5 -149.5t-286 -54q-214 0 -381.5 97t-258.5 265t-91 377zM305 727q0 -157 68 -286.5t194 -206t285 -76.5q149 0 272 72t195 202.5t72 294.5 q0 165 -72 296.5t-194.5 203t-272.5 71.5q-159 0 -285 -77t-194 -207t-68 -287zM778 1620l240 289l188 2l-254 -291h-174z" />
<glyph unicode="&#xd4;" horiz-adv-x="1697" d="M121 727q0 209 91 377.5t258.5 266t381.5 97.5q153 0 286.5 -54t230 -149.5t152.5 -235t56 -302.5t-56 -301.5t-152.5 -234t-230.5 -149.5t-286 -54q-214 0 -381.5 97t-258.5 265t-91 377zM305 727q0 -157 68 -286.5t194 -206t285 -76.5q149 0 272 72t195 202.5t72 294.5 q0 165 -72 296.5t-194.5 203t-272.5 71.5q-159 0 -285 -77t-194 -207t-68 -287zM532 1620l238 293h154l243 -293h-168l-147 182h-4l-148 -182h-168z" />
<glyph unicode="&#xd5;" horiz-adv-x="1697" d="M121 727q0 209 91 377.5t258.5 266t381.5 97.5q153 0 286.5 -54t230 -149.5t152.5 -235t56 -302.5t-56 -301.5t-152.5 -234t-230.5 -149.5t-286 -54q-214 0 -381.5 97t-258.5 265t-91 377zM305 727q0 -157 68 -286.5t194 -206t285 -76.5q149 0 272 72t195 202.5t72 294.5 q0 165 -72 296.5t-194.5 203t-272.5 71.5q-159 0 -285 -77t-194 -207t-68 -287zM485 1688q29 95 82 148.5t129 53.5q34 0 67.5 -10t50.5 -19.5t50 -29.5q4 -3 24 -17t27.5 -18t23 -12.5t28.5 -11.5t26 -3q37 0 69 29t50 84l107 -35q-27 -102 -82 -158.5t-123 -56.5 q-33 0 -69 13t-56 25t-55 36q-77 47 -119 47q-79 0 -123 -113z" />
<glyph unicode="&#xd6;" horiz-adv-x="1697" d="M121 727q0 209 91 377.5t258.5 266t381.5 97.5q153 0 286.5 -54t230 -149.5t152.5 -235t56 -302.5t-56 -301.5t-152.5 -234t-230.5 -149.5t-286 -54q-214 0 -381.5 97t-258.5 265t-91 377zM305 727q0 -157 68 -286.5t194 -206t285 -76.5q149 0 272 72t195 202.5t72 294.5 q0 165 -72 296.5t-194.5 203t-272.5 71.5q-159 0 -285 -77t-194 -207t-68 -287zM547 1780q0 48 34.5 82t84.5 34q49 0 83.5 -34t34.5 -82q0 -49 -34 -83t-84 -34q-51 0 -85 33.5t-34 83.5zM920 1780q0 46 33.5 80t82.5 34t83 -34t34 -80q0 -48 -34 -81.5t-83 -33.5 t-82.5 33.5t-33.5 81.5z" />
<glyph unicode="&#xd7;" horiz-adv-x="1048" d="M113 262l305 305l-305 303l106 109l303 -305l305 305l109 -107l-305 -307l305 -305l-109 -102l-303 301l-305 -303z" />
<glyph unicode="&#xd8;" horiz-adv-x="1697" d="M121 727q0 209 91 377.5t258.5 266t381.5 97.5q266 0 461 -153l168 180l104 -96l-172 -185q164 -204 164 -487q0 -163 -56 -301.5t-152.5 -234t-230.5 -149.5t-286 -54q-252 0 -442 137l-166 -178l-109 98l166 178q-180 205 -180 504zM305 727q0 -214 121 -369l764 824 q-144 116 -338 116q-159 0 -285 -77t-194 -207t-68 -287zM530 258q140 -100 322 -100q149 0 272 72t195 202.5t72 294.5q0 198 -105 348z" />
<glyph unicode="&#xd9;" horiz-adv-x="1456" d="M164 592v862h178v-850q0 -202 104.5 -324t278.5 -122q173 0 280 119.5t107 326.5v850h178v-862q0 -280 -152.5 -442t-412.5 -162q-253 0 -407 160.5t-154 443.5zM432 1911l191 -2l239 -289h-176z" />
<glyph unicode="&#xda;" horiz-adv-x="1456" d="M164 592v862h178v-850q0 -202 104.5 -324t278.5 -122q173 0 280 119.5t107 326.5v850h178v-862q0 -280 -152.5 -442t-412.5 -162q-253 0 -407 160.5t-154 443.5zM600 1620l240 289l188 2l-254 -291h-174z" />
<glyph unicode="&#xdb;" horiz-adv-x="1456" d="M164 592v862h178v-850q0 -202 104.5 -324t278.5 -122q173 0 280 119.5t107 326.5v850h178v-862q0 -280 -152.5 -442t-412.5 -162q-253 0 -407 160.5t-154 443.5zM408 1620l237 293h154l243 -293h-168l-147 182h-4l-148 -182h-167z" />
<glyph unicode="&#xdc;" horiz-adv-x="1456" d="M164 592v862h178v-850q0 -202 104.5 -324t278.5 -122q173 0 280 119.5t107 326.5v850h178v-862q0 -280 -152.5 -442t-412.5 -162q-253 0 -407 160.5t-154 443.5zM422 1780q0 48 34.5 82t84.5 34q49 0 83.5 -34t34.5 -82q0 -49 -34 -83t-84 -34q-51 0 -85 33.5t-34 83.5z M795 1780q0 46 33.5 80t82.5 34t83 -34t34 -80q0 -48 -34 -81.5t-83 -33.5t-82.5 33.5t-33.5 81.5z" />
<glyph unicode="&#xdd;" horiz-adv-x="1236" d="M35 1454h205l376 -627h5l374 627h207l-495 -805v-649h-179v649zM522 1620l240 289l188 2l-254 -291h-174z" />
<glyph unicode="&#xde;" horiz-adv-x="1304" d="M184 0v1454h178v-287h371q124 0 217.5 -33.5t150 -95t84 -142t27.5 -179.5q0 -222 -137 -334.5t-373 -112.5h-340v-270h-178zM362 434h326q172 0 256 78.5t84 208.5q0 137 -82.5 210t-230.5 73h-353v-570z" />
<glyph unicode="&#xdf;" horiz-adv-x="1280" d="M160 0v1008q0 258 127 386t362 128q215 0 336 -100t121 -261q0 -50 -14 -98t-57 -101t-111 -85q127 -55 200.5 -171t73.5 -255q0 -210 -128.5 -336.5t-330.5 -126.5h-221v149h184q141 0 234.5 88.5t93.5 229.5q0 134 -95.5 231.5t-254.5 97.5h-113v144h105q67 1 118 18 t78.5 41t44.5 56t22 56.5t5 49.5q0 97 -74 158t-211 61q-161 0 -245 -85t-84 -271v-1012h-166z" />
<glyph unicode="&#xe0;" d="M98 492q0 222 138.5 370t349.5 148q103 0 192 -42t152 -120h2v149h166v-997h-160v158h-2q-61 -81 -151 -125.5t-197 -44.5q-211 0 -350.5 139.5t-139.5 364.5zM266 492q0 -153 93 -253t243 -100q139 0 237.5 99t98.5 254t-95 259.5t-239 104.5t-241 -100.5t-97 -263.5z M330 1432l190 -2l240 -289h-176z" />
<glyph unicode="&#xe1;" d="M98 492q0 222 138.5 370t349.5 148q103 0 192 -42t152 -120h2v149h166v-997h-160v158h-2q-61 -81 -151 -125.5t-197 -44.5q-211 0 -350.5 139.5t-139.5 364.5zM266 492q0 -153 93 -253t243 -100q139 0 237.5 99t98.5 254t-95 259.5t-239 104.5t-241 -100.5t-97 -263.5z M522 1141l240 289l188 2l-254 -291h-174z" />
<glyph unicode="&#xe2;" d="M98 492q0 222 138.5 370t349.5 148q103 0 192 -42t152 -120h2v149h166v-997h-160v158h-2q-61 -81 -151 -125.5t-197 -44.5q-211 0 -350.5 139.5t-139.5 364.5zM266 492q0 -153 93 -253t243 -100q139 0 237.5 99t98.5 254t-95 259.5t-239 104.5t-241 -100.5t-97 -263.5z M299 1139l238 293h153l244 -293h-168l-148 182h-4l-147 -182h-168z" />
<glyph unicode="&#xe3;" d="M98 492q0 222 138.5 370t349.5 148q103 0 192 -42t152 -120h2v149h166v-997h-160v158h-2q-61 -81 -151 -125.5t-197 -44.5q-211 0 -350.5 139.5t-139.5 364.5zM252 1206q29 96 82 149.5t129 53.5q34 0 67.5 -10t50.5 -19.5t50 -29.5q4 -3 24 -17t27.5 -18t23 -12.5 t28.5 -11.5t26 -3q37 0 69 29t50 84l106 -35q-27 -102 -82 -158.5t-123 -56.5q-33 0 -69 13t-56 25t-55 36q-77 47 -119 47q-79 0 -123 -113zM266 492q0 -153 93 -253t243 -100q139 0 237.5 99t98.5 254t-95 259.5t-239 104.5t-241 -100.5t-97 -263.5z" />
<glyph unicode="&#xe4;" d="M98 492q0 222 138.5 370t349.5 148q103 0 192 -42t152 -120h2v149h166v-997h-160v158h-2q-61 -81 -151 -125.5t-197 -44.5q-211 0 -350.5 139.5t-139.5 364.5zM266 492q0 -153 93 -253t243 -100q139 0 237.5 99t98.5 254t-95 259.5t-239 104.5t-241 -100.5t-97 -263.5z M313 1298q0 48 34.5 82.5t84.5 34.5q49 0 84 -34.5t35 -82.5q0 -49 -34.5 -82.5t-84.5 -33.5q-51 0 -85 33t-34 83zM686 1298q0 46 34 80.5t83 34.5t83 -34.5t34 -80.5q0 -47 -34 -80.5t-83 -33.5t-83 33.5t-34 80.5z" />
<glyph unicode="&#xe5;" d="M98 492q0 222 138.5 370t349.5 148q103 0 192 -42t152 -120h2v149h166v-997h-160v158h-2q-61 -81 -151 -125.5t-197 -44.5q-211 0 -350.5 139.5t-139.5 364.5zM266 492q0 -153 93 -253t243 -100q139 0 237.5 99t98.5 254t-95 259.5t-239 104.5t-241 -100.5t-97 -263.5z M420 1294q0 81 56 138t140 57t142.5 -56t58.5 -139q0 -79 -58 -136.5t-143 -57.5q-80 0 -138 56.5t-58 137.5zM530 1296q0 -37 25.5 -61.5t62.5 -24.5q36 0 62.5 25.5t26.5 60.5t-27 61.5t-62 26.5q-36 0 -62 -26t-26 -62z" />
<glyph unicode="&#xe6;" horiz-adv-x="1605" d="M66 287q0 139 95 220t279 81l242 2v22q0 135 -43 189.5t-139 54.5q-153 0 -291 -74l-66 133q162 95 367 95q112 0 183 -45t104 -140h2q58 88 146.5 136.5t197.5 48.5q180 0 295.5 -140t115.5 -356q0 -20 -6 -68h-706q15 -137 97.5 -222t205.5 -85q72 0 137 36.5t113 96.5 l116 -98q-67 -87 -162.5 -136.5t-211.5 -49.5q-113 0 -204.5 53.5t-146.5 148.5h-4q-44 -88 -141 -145t-229 -57q-171 0 -258.5 83.5t-87.5 215.5zM231 293q0 -65 50.5 -110.5t142.5 -45.5q105 0 184.5 66t79.5 151v11l-2 84h-231q-102 -2 -163 -41.5t-61 -114.5zM848 588 h541q-20 122 -90.5 195t-168.5 73q-107 0 -183.5 -72.5t-98.5 -195.5z" />
<glyph unicode="&#xe7;" horiz-adv-x="1069" d="M96 498q0 226 140 369t360 143q115 0 222 -46.5t179 -132.5l-114 -100q-47 58 -119.5 91.5t-159.5 33.5q-151 0 -245.5 -100t-94.5 -258q0 -160 94.5 -259.5t245.5 -99.5q85 0 160 33t123 86l114 -102q-61 -69 -159 -114.5t-213 -51.5l-25 -53l2 -5q81 -5 129.5 -47 t48.5 -114q0 -69 -55 -112.5t-164 -43.5q-52 0 -114 12v90q47 -14 98 -14q48 0 81.5 19.5t33.5 56.5q0 36 -44 61t-126 25v61l26 56v10q-189 23 -306.5 161t-117.5 345z" />
<glyph unicode="&#xe8;" horiz-adv-x="1130" d="M96 498q0 224 136.5 368t340.5 144q207 0 335 -139.5t128 -356.5q0 -16 -2 -42l-2 -26h-768q17 -140 108 -223.5t226 -83.5q175 0 281 135l116 -100q-144 -186 -403 -186q-214 0 -355 142.5t-141 367.5zM270 584h602q-21 125 -96.5 198.5t-193.5 73.5t-203.5 -73 t-108.5 -199zM301 1432l191 -2l239 -289h-176z" />
<glyph unicode="&#xe9;" horiz-adv-x="1130" d="M96 498q0 224 136.5 368t340.5 144q207 0 335 -139.5t128 -356.5q0 -16 -2 -42l-2 -26h-768q17 -140 108 -223.5t226 -83.5q175 0 281 135l116 -100q-144 -186 -403 -186q-214 0 -355 142.5t-141 367.5zM270 584h602q-21 125 -96.5 198.5t-193.5 73.5t-203.5 -73 t-108.5 -199zM485 1141l240 289l188 2l-254 -291h-174z" />
<glyph unicode="&#xea;" horiz-adv-x="1130" d="M96 498q0 224 136.5 368t340.5 144q207 0 335 -139.5t128 -356.5q0 -16 -2 -42l-2 -26h-768q17 -140 108 -223.5t226 -83.5q175 0 281 135l116 -100q-144 -186 -403 -186q-214 0 -355 142.5t-141 367.5zM268 1139l238 293h153l244 -293h-168l-147 182h-4l-148 -182h-168z M270 584h602q-21 125 -96.5 198.5t-193.5 73.5t-203.5 -73t-108.5 -199z" />
<glyph unicode="&#xeb;" horiz-adv-x="1130" d="M96 498q0 224 136.5 368t340.5 144q207 0 335 -139.5t128 -356.5q0 -16 -2 -42l-2 -26h-768q17 -140 108 -223.5t226 -83.5q175 0 281 135l116 -100q-144 -186 -403 -186q-214 0 -355 142.5t-141 367.5zM270 584h602q-21 125 -96.5 198.5t-193.5 73.5t-203.5 -73 t-108.5 -199zM283 1298q0 48 34 82.5t84 34.5q49 0 84 -34.5t35 -82.5q0 -49 -34.5 -82.5t-84.5 -33.5q-51 0 -84.5 33t-33.5 83zM655 1298q0 46 34 80.5t83 34.5t83 -34.5t34 -80.5q0 -47 -34 -80.5t-83 -33.5t-83 33.5t-34 80.5z" />
<glyph unicode="&#xec;" horiz-adv-x="512" d="M-18 1432l186 -2l170 -289h-172zM172 0v997h166v-997h-166z" />
<glyph unicode="&#xed;" horiz-adv-x="512" d="M172 0v997h166v-997h-166zM180 1141l240 289l188 2l-254 -291h-174z" />
<glyph unicode="&#xee;" horiz-adv-x="512" d="M-63 1139l237 293h154l243 -293h-168l-147 182h-4l-148 -182h-167zM172 0v997h166v-997h-166z" />
<glyph unicode="&#xef;" horiz-adv-x="512" d="M-29 1298q0 48 34 82.5t83 34.5q50 0 84.5 -34.5t34.5 -82.5q0 -50 -34 -83t-85 -33q-50 0 -83.5 33.5t-33.5 82.5zM172 0v997h166v-997h-166zM303 1298q0 46 35 80.5t82 34.5q49 0 83 -34.5t34 -80.5q0 -47 -34 -80.5t-83 -33.5q-48 0 -82.5 33.5t-34.5 80.5z" />
<glyph unicode="&#xf0;" horiz-adv-x="1216" d="M98 481q0 223 139 363.5t351 140.5q158 0 280 -88h4q-105 212 -303 346l-149 -115l-76 86l119 95q-93 47 -180 75l79 132q126 -45 230 -105l143 113l76 -92l-117 -91q199 -146 311.5 -360t112.5 -469v-4q0 -225 -143.5 -372.5t-370.5 -147.5q-215 0 -360.5 139.5 t-145.5 353.5zM266 492q0 -154 98 -253.5t242 -99.5q150 0 246 101.5t96 251.5q0 149 -98 245.5t-246 96.5q-147 0 -242.5 -100t-95.5 -242z" />
<glyph unicode="&#xf1;" horiz-adv-x="1187" d="M158 0v997h166v-174h2q63 89 157.5 138t204.5 49q167 0 263 -105t96 -313v-592h-166v545q0 166 -64 238.5t-180 72.5q-143 0 -228 -95.5t-85 -262.5v-498h-166zM233 1206q29 96 82 149.5t129 53.5q34 0 67.5 -10t50.5 -19.5t50 -29.5q4 -3 24 -17t27.5 -18t23 -12.5 t28.5 -11.5t26 -3q37 0 69 29t50 84l107 -35q-27 -102 -82 -158.5t-123 -56.5q-33 0 -69 13t-56 25t-55 36q-77 47 -119 47q-79 0 -123 -113z" />
<glyph unicode="&#xf2;" horiz-adv-x="1222" d="M96 498q0 219 143.5 365.5t372.5 146.5q222 0 367 -143.5t145 -368.5t-145 -367.5t-367 -142.5q-152 0 -270.5 67.5t-182 183.5t-63.5 259zM264 498q0 -152 97.5 -255.5t250.5 -103.5q146 0 245 101t99 258q0 158 -98.5 258t-245.5 100q-154 0 -251 -103t-97 -255z M305 1432l191 -2l239 -289h-176z" />
<glyph unicode="&#xf3;" horiz-adv-x="1222" d="M96 498q0 219 143.5 365.5t372.5 146.5q222 0 367 -143.5t145 -368.5t-145 -367.5t-367 -142.5q-152 0 -270.5 67.5t-182 183.5t-63.5 259zM264 498q0 -152 97.5 -255.5t250.5 -103.5q146 0 245 101t99 258q0 158 -98.5 258t-245.5 100q-154 0 -251 -103t-97 -255z M520 1141l240 289l188 2l-254 -291h-174z" />
<glyph unicode="&#xf4;" horiz-adv-x="1222" d="M96 498q0 219 143.5 365.5t372.5 146.5q222 0 367 -143.5t145 -368.5t-145 -367.5t-367 -142.5q-152 0 -270.5 67.5t-182 183.5t-63.5 259zM264 498q0 -152 97.5 -255.5t250.5 -103.5q146 0 245 101t99 258q0 158 -98.5 258t-245.5 100q-154 0 -251 -103t-97 -255z M293 1139l237 293h154l244 -293h-168l-148 182h-4l-147 -182h-168z" />
<glyph unicode="&#xf5;" horiz-adv-x="1222" d="M96 498q0 219 143.5 365.5t372.5 146.5q222 0 367 -143.5t145 -368.5t-145 -367.5t-367 -142.5q-152 0 -270.5 67.5t-182 183.5t-63.5 259zM246 1206q29 96 82 149.5t129 53.5q34 0 67.5 -10t50.5 -19.5t50 -29.5q4 -3 24 -17t27.5 -18t23 -12.5t28.5 -11.5t26 -3 q37 0 68.5 29t49.5 84l107 -35q-27 -102 -82 -158.5t-123 -56.5q-33 0 -69 13t-56 25t-55 36q-77 47 -119 47q-79 0 -123 -113zM264 498q0 -152 97.5 -255.5t250.5 -103.5q146 0 245 101t99 258q0 158 -98.5 258t-245.5 100q-154 0 -251 -103t-97 -255z" />
<glyph unicode="&#xf6;" horiz-adv-x="1222" d="M96 498q0 219 143.5 365.5t372.5 146.5q222 0 367 -143.5t145 -368.5t-145 -367.5t-367 -142.5q-152 0 -270.5 67.5t-182 183.5t-63.5 259zM264 498q0 -152 97.5 -255.5t250.5 -103.5q146 0 245 101t99 258q0 158 -98.5 258t-245.5 100q-154 0 -251 -103t-97 -255z M307 1298q0 48 34.5 82.5t84.5 34.5q49 0 84 -34.5t35 -82.5q0 -49 -34.5 -82.5t-84.5 -33.5q-51 0 -85 33t-34 83zM680 1298q0 46 34 80.5t83 34.5t82.5 -34t33.5 -81q0 -48 -33.5 -81t-82.5 -33t-83 33.5t-34 80.5z" />
<glyph unicode="&#xf7;" horiz-adv-x="1189" d="M129 489v154h958v-154h-958zM475 156q0 48 34.5 82t84.5 34q49 0 84 -34.5t35 -81.5q0 -49 -34.5 -83t-84.5 -34q-51 0 -85 33.5t-34 83.5zM475 963q0 48 34.5 82t84.5 34q49 0 84 -34.5t35 -81.5q0 -49 -34.5 -83t-84.5 -34q-51 0 -85 33.5t-34 83.5z" />
<glyph unicode="&#xf8;" horiz-adv-x="1222" d="M96 498q0 219 143.5 365.5t372.5 146.5q180 0 318 -101l123 129l92 -86l-125 -133q104 -136 104 -321q0 -225 -145 -367.5t-367 -142.5q-163 0 -295 82l-108 -117l-96 88l106 113q-123 142 -123 344zM264 498q0 -130 70 -222l485 515q-90 65 -207 65q-154 0 -251 -103 t-97 -255zM430 188q81 -49 182 -49q146 0 245 101t99 258q0 115 -53 198z" />
<glyph unicode="&#xf9;" horiz-adv-x="1155" d="M137 403v594h166v-546q0 -166 60.5 -239t183.5 -73q124 0 209.5 101.5t85.5 273.5v483h166v-997h-166v166h-2q-60 -86 -145.5 -132t-182.5 -46q-177 0 -276 103.5t-99 311.5zM291 1432l190 -2l240 -289h-176z" />
<glyph unicode="&#xfa;" horiz-adv-x="1155" d="M137 403v594h166v-546q0 -166 60.5 -239t183.5 -73q124 0 209.5 101.5t85.5 273.5v483h166v-997h-166v166h-2q-60 -86 -145.5 -132t-182.5 -46q-177 0 -276 103.5t-99 311.5zM483 1141l240 289l188 2l-254 -291h-174z" />
<glyph unicode="&#xfb;" horiz-adv-x="1155" d="M137 403v594h166v-546q0 -166 60.5 -239t183.5 -73q124 0 209.5 101.5t85.5 273.5v483h166v-997h-166v166h-2q-60 -86 -145.5 -132t-182.5 -46q-177 0 -276 103.5t-99 311.5zM256 1139l238 293h153l244 -293h-168l-148 182h-4l-147 -182h-168z" />
<glyph unicode="&#xfc;" horiz-adv-x="1155" d="M137 403v594h166v-546q0 -166 60.5 -239t183.5 -73q124 0 209.5 101.5t85.5 273.5v483h166v-997h-166v166h-2q-60 -86 -145.5 -132t-182.5 -46q-177 0 -276 103.5t-99 311.5zM270 1298q0 48 34.5 82.5t84.5 34.5q49 0 84 -34.5t35 -82.5q0 -49 -34.5 -82.5t-84.5 -33.5 q-51 0 -85 33t-34 83zM643 1298q0 46 34 80.5t83 34.5t83 -34.5t34 -80.5q0 -47 -34 -80.5t-83 -33.5t-83 33.5t-34 80.5z" />
<glyph unicode="&#xfd;" horiz-adv-x="1081" d="M47 997h178l324 -759h4l301 759h176l-563 -1403h-176l178 447zM422 1141l240 289l188 2l-254 -291h-174z" />
<glyph unicode="&#xfe;" horiz-adv-x="1251" d="M160 -406v1913h166v-657h2q63 77 151.5 118.5t188.5 41.5q211 0 349 -148t138 -370q0 -225 -139 -364.5t-348 -139.5q-104 0 -191.5 41.5t-148.5 117.5h-4v-553h-164zM319 492q0 -154 98 -253.5t234 -99.5q150 0 243 100t93 253q0 163 -96.5 263.5t-241.5 100.5 q-141 0 -235.5 -105t-94.5 -259z" />
<glyph unicode="&#xff;" horiz-adv-x="1081" d="M47 997h178l324 -759h4l301 759h176l-563 -1403h-176l178 447zM238 1298q0 48 34 82.5t84 34.5q49 0 84 -34.5t35 -82.5q0 -49 -34.5 -82.5t-84.5 -33.5q-51 0 -84.5 33t-33.5 83zM610 1298q0 46 34 80.5t83 34.5t83 -34.5t34 -80.5q0 -47 -34 -80.5t-83 -33.5t-83 33.5 t-34 80.5z" />
<glyph unicode="&#x152;" horiz-adv-x="1964" d="M121 729q0 203 91.5 368.5t260.5 261.5t383 95h129h832v-164h-709v-487h588v-164h-588v-475h750v-164h-928h-74q-214 0 -383 97.5t-260.5 263.5t-91.5 368zM305 729q0 -120 43 -225t117 -179t175.5 -116t215.5 -41h74v1120h-74q-152 1 -278 -69.5t-199.5 -199.5 t-73.5 -290z" />
<glyph unicode="&#x153;" horiz-adv-x="1660" d="M72 498q0 219 125 365.5t313 146.5q103 0 190.5 -53.5t145.5 -149.5h2q57 96 146 149.5t202 53.5q175 0 290.5 -140.5t115.5 -355.5q0 -28 -5 -68h-657q11 -140 79.5 -223.5t188.5 -83.5q68 0 131.5 37t104.5 96l115 -98q-58 -84 -154.5 -135t-204.5 -51 q-120 0 -208.5 52.5t-141.5 145.5h-4q-57 -94 -146 -146t-196 -52q-128 0 -227 67t-152 182.5t-53 260.5zM240 498q0 -154 73 -256.5t191 -102.5q111 0 188.5 101.5t77.5 257.5q0 157 -75 257.5t-185 100.5q-115 0 -192.5 -103t-77.5 -255zM944 586h494q-18 124 -83 197 t-163 73q-103 0 -168 -72.5t-80 -197.5z" />
<glyph unicode="&#x178;" horiz-adv-x="1236" d="M35 1454h205l376 -627h5l374 627h207l-495 -805v-649h-179v649zM317 1780q0 48 34.5 82t84.5 34q49 0 84 -34.5t35 -81.5q0 -49 -34.5 -83t-84.5 -34q-51 0 -85 33.5t-34 83.5zM690 1780q0 46 34 80t83 34t83 -34t34 -80q0 -48 -34 -81.5t-83 -33.5t-83 33.5t-34 81.5z " />
<glyph unicode="&#x2c6;" horiz-adv-x="1013" d="M188 1106l238 293h154l243 -293h-168l-147 182h-4l-148 -182h-168z" />
<glyph unicode="&#x2dc;" horiz-adv-x="1034" d="M152 1174q61 202 210 202q34 0 67.5 -10t50.5 -19.5t50 -29.5q4 -3 24 -17t27.5 -18t23 -12.5t28.5 -11.5t26 -3q37 0 69 29t50 84l107 -35q-27 -102 -82 -158.5t-123 -56.5q-33 0 -69 13t-56 25t-55 36q-77 47 -119 47q-79 0 -123 -113z" />
<glyph unicode="&#x2000;" horiz-adv-x="985" />
<glyph unicode="&#x2001;" horiz-adv-x="1970" />
<glyph unicode="&#x2002;" horiz-adv-x="985" />
<glyph unicode="&#x2003;" horiz-adv-x="1970" />
<glyph unicode="&#x2004;" horiz-adv-x="656" />
<glyph unicode="&#x2005;" horiz-adv-x="492" />
<glyph unicode="&#x2006;" horiz-adv-x="328" />
<glyph unicode="&#x2007;" horiz-adv-x="328" />
<glyph unicode="&#x2008;" horiz-adv-x="246" />
<glyph unicode="&#x2009;" horiz-adv-x="394" />
<glyph unicode="&#x200a;" horiz-adv-x="109" />
<glyph unicode="&#x2010;" horiz-adv-x="839" d="M117 551v162h606v-162h-606z" />
<glyph unicode="&#x2011;" horiz-adv-x="839" d="M117 551v162h606v-162h-606z" />
<glyph unicode="&#x2012;" horiz-adv-x="839" d="M117 551v162h606v-162h-606z" />
<glyph unicode="&#x2013;" horiz-adv-x="1187" d="M117 535v149h954v-149h-954z" />
<glyph unicode="&#x2014;" horiz-adv-x="2144" d="M117 535v149h1911v-149h-1911z" />
<glyph unicode="&#x2018;" horiz-adv-x="407" d="M80 961l110 493h138l-68 -493h-180z" />
<glyph unicode="&#x2019;" horiz-adv-x="407" d="M80 961l67 493h181l-111 -493h-137z" />
<glyph unicode="&#x201a;" horiz-adv-x="440" d="M66 -266l65 491h182l-125 -491h-122z" />
<glyph unicode="&#x201c;" horiz-adv-x="698" d="M80 961l108 493h140l-66 -493h-182zM371 961l110 493h137l-67 -493h-180z" />
<glyph unicode="&#x201d;" horiz-adv-x="698" d="M80 961l67 493h181l-111 -493h-137zM371 961l65 493h182l-108 -493h-139z" />
<glyph unicode="&#x201e;" horiz-adv-x="731" d="M66 -156l67 494h180l-110 -494h-137zM356 -156l66 494h182l-108 -494h-140z" />
<glyph unicode="&#x2022;" horiz-adv-x="843" d="M211 647q0 88 61 148.5t150 60.5q88 0 149.5 -60.5t61.5 -148.5t-61.5 -148.5t-149.5 -60.5q-89 0 -150 60.5t-61 148.5z" />
<glyph unicode="&#x2026;" horiz-adv-x="2048" d="M223 102q0 50 34 83.5t85 33.5q48 0 82.5 -34t34.5 -83q0 -47 -34.5 -80.5t-82.5 -33.5q-51 0 -85 33t-34 81zM905 102q0 50 34 83.5t85 33.5q48 0 82.5 -34t34.5 -83q0 -47 -34.5 -80.5t-82.5 -33.5q-51 0 -85 33t-34 81zM1589 102q0 50 34 83.5t85 33.5q48 0 82.5 -34 t34.5 -83q0 -47 -34.5 -80.5t-82.5 -33.5q-51 0 -85 33t-34 81z" />
<glyph unicode="&#x202f;" horiz-adv-x="394" />
<glyph unicode="&#x2039;" horiz-adv-x="595" d="M102 502l258 454h164l-256 -454l254 -449h-166z" />
<glyph unicode="&#x203a;" horiz-adv-x="587" d="M80 956h164l258 -454l-254 -449h-166l254 449z" />
<glyph unicode="&#x205f;" horiz-adv-x="492" />
<glyph unicode="&#x20ac;" horiz-adv-x="1226" d="M27 500v110h116q-2 23 -2 72q0 26 4 76h-118v112h135q51 228 214 370t398 142q215 0 383 -118l-100 -129q-125 88 -283 88q-152 0 -267 -96.5t-161 -256.5h563v-112h-583q-4 -50 -4 -76t4 -72h583v-110h-563q46 -163 165 -256.5t263 -93.5q166 0 295 92l98 -131 q-174 -123 -393 -123q-139 0 -263.5 56.5t-220 175t-130.5 280.5h-133z" />
<glyph unicode="&#x2122;" horiz-adv-x="1398" d="M47 1354v100h490v-100h-191v-561h-110v561h-189zM637 793v661h115l217 -397l217 397h114v-661h-110v454l-184 -323h-74l-187 323v-454h-108z" />
<glyph unicode="&#x25fc;" horiz-adv-x="993" d="M0 0v993h993v-993h-993z" />
</font>
</defs>
</svg>
